Coordinates																																									
version=1																																									
nRows=29																																									
nColumns=42																																									
inDegrees=yes																																									
																																									
"Units are S.I. units (second, meters, Newtons, ...)"																																									
Angles are in degrees.																																									
																																									
endheader																																									
time	pelvis_tx	pelvis_ty	pelvis_tz	pelvis_tilt	pelvis_list	pelvis_rotation	hip_flexion_r	hip_adduction_r	hip_rotation_r	knee_angle_r	ankle_angle_r	subtalar_angle_r	mtp_angle_r	hip_flexion_l	hip_adduction_l	hip_rotation_l	knee_angle_l	ankle_angle_l	subtalar_angle_l	mtp_angle_l	lumbar_extension	lumbar_bending	lumbar_rotation	ground_force_vx	ground_force_vy	ground_force_vz	ground_force_px	ground_force_py	ground_force_pz	ground_force_vx	ground_force_vy	ground_force_vz	ground_force_px	ground_force_py	ground_force_pz	ground_torque_x	ground_torque_y	ground_torque_z	ground_torque_x	ground_torque_y	ground_torque_z
0.84	0.414532	0.633332	-0.476604	5.427337	17.047428	-95.845673	-5.014402	-2.161072	0.71528	-14.926431	16.204538	0	0	40.536473	3.474694	-23.498801	-10.85619	4.999901	0	0	34.334213	-2.970667	9.950399	0	0	0	0	0	0	-0.618036	138.830246	-21.802402	0.440298	-0.002965	-0.355041	0	0	0	-0.006741	0.731462	0.015646
0.85	0.416725	0.634471	-0.463631	6.032701	16.56794	-95.141296	-4.942531	-3.168548	-0.47226	-17.663552	12.913033	0	0	39.511811	5.104355	-19.60905	-11.841477	4.231931	0	0	34.460169	-3.854517	9.537855	0	0	0	0	0	0	-2.328311	156.478409	-26.206266	0.441695	-0.004013	-0.35458	0	0	0	-0.007328	0.795129	0.017008
0.86	0.418911	0.635694	-0.45078	6.624713	16.135923	-94.48188	-4.690734	-4.170217	-1.577634	-20.64404	9.563627	0	0	38.541426	6.6691	-16.024447	-12.849513	3.579752	0	0	34.592149	-4.700737	9.150204	0	0	0	0	0	0	-4.170731	172.121902	-30.009417	0.443328	-0.004721	-0.353102	0	0	0	-0.007782	0.84443	0.018063
0.87	0.421032	0.637014	-0.438206	7.176416	15.775129	-93.902634	-4.158917	-5.129114	-2.527268	-23.883433	6.244819	0	0	37.629315	8.094494	-12.975578	-13.837774	3.122428	0	0	34.71836	-5.467143	8.79645	0	0	0	0	0	0	-5.908745	186.693192	-33.156479	0.445133	-0.005079	-0.350967	0	0	0	-0.008131	0.882245	0.018872
0.88	0.42303	0.638436	-0.426014	7.671862	15.491207	-93.431564	-3.289196	-6.017838	-3.24905	-27.373752	3.019194	0	0	36.748173	9.337409	-10.575223	-14.732071	2.894047	0	0	34.828986	-6.127217	8.485145	0	0	0	0	0	0	-7.339108	200.499817	-35.416042	0.446904	-0.005138	-0.348619	0	0	0	-0.008419	0.913537	0.019541
0.89	0.424855	0.63995	-0.414273	8.103042	15.279485	-93.087463	-2.05981	-6.813196	-3.680257	-31.084526	-0.044063	0	0	35.860798	10.378204	-8.839164	-15.454956	2.892983	0	0	34.917372	-6.667717	8.221423	0	0	0	0	0	0	-8.324798	213.095566	-36.526913	0.448413	-0.004978	-0.34643	0	0	0	-0.008699	0.943906	0.02019
0.9	0.426469	0.641536	-0.403019	8.467354	15.132503	-92.877327	-0.475195	-7.494293	-3.78246	-34.969312	-2.848546	0	0	34.938439	11.214611	-7.715021	-15.949868	3.094136	0	0	34.980933	-7.086583	8.002746	0	0	0	0	0	0	-8.854792	223.642258	-36.391834	0.449533	-0.004679	-0.344614	0	0	0	-0.008967	0.973031	0.020813
0.91	0.427853	0.643163	-0.392262	8.763844	15.045871	-92.795448	1.444008	-8.040834	-3.551076	-38.971734	-5.273063	0	0	33.972412	11.855018	-7.109385	-16.195596	3.460768	0	0	35.022618	-7.388946	7.816691	0	0	0	0	0	0	-9.056987	231.371124	-35.077736	0.450283	-0.004307	-0.343256	0	0	0	-0.009151	0.992941	0.021239
0.92	0.42901	0.644789	-0.38199	8.989648	15.020534	-92.824905	3.667265	-8.431579	-3.013795	-43.028518	-7.191025	0	0	32.976297	12.312032	-6.909856	-16.208906	3.954499	0	0	35.050574	-7.582584	7.642171	0	0	0	0	0	0	-9.114249	235.819977	-32.763306	0.45076	-0.003904	-0.342345	0	0	0	-0.009174	0.995422	0.021292
0.93	0.429954	0.64638	-0.37217	9.140752	15.056698	-92.940453	6.150845	-8.648072	-2.224511	-47.0699	-8.495652	0	0	31.972901	12.601599	-7.000854	-16.032747	4.540064	0	0	35.071987	-7.677279	7.454257	0	0	0	0	0	0	-9.183801	236.91658	-29.697845	0.45108	-0.003495	-0.341811	0	0	0	-0.009012	0.977858	0.020917
0.94	0.43071	0.647915	-0.362748	9.215163	15.144759	-93.11348	8.832066	-8.68086	-1.254283	-51.02042	-9.122094	0	0	30.975557	12.744122	-7.277123	-15.717486	5.185957	0	0	35.085446	-7.685641	7.232025	0	0	0	0	0	0	-9.382206	234.97789	-26.155245	0.451349	-0.003091	-0.34156	0	0	0	-0.008677	0.941535	0.02014
0.95	0.431308	0.649396	-0.353651	9.213708	15.264489	-93.316788	11.633762	-8.532062	-0.18105	-54.801989	-9.062533	0	0	29.981016	12.762526	-7.65343	-15.306522	5.864055	0	0	35.080685	-7.621494	6.96453	0	0	0	0	0	0	-9.751216	230.589233	-22.393976	0.451642	-0.002695	-0.341489	0	0	0	-0.008209	0.890723	0.019053
0.96	0.431781	0.650836	-0.344798	9.137064	15.391591	-93.524208	14.47563	-8.213791	0.914666	-58.337848	-8.371346	0	0	28.974014	12.67881	-8.064397	-14.830313	6.549228	0	0	35.043747	-7.496816	6.648442	0	0	0	0	0	0	-10.22604	224.433212	-18.631075	0.451987	-0.002312	-0.341493	0	0	0	-0.007663	0.831485	0.017786
0.97	0.43217	0.65225	-0.336112	8.982552	15.50312	-93.707397	17.282626	-7.745157	1.951037	-61.556178	-7.15719	0	0	27.933384	12.511846	-8.458504	-14.306296	7.219595	0	0	34.960549	-7.319994	6.280673	0	0	0	0	0	0	-10.671543	217.169342	-15.020878	0.452369	-0.001946	-0.341474	0	0	0	-0.007086	0.768846	0.016446
0.98	0.432519	0.653653	-0.327526	8.745129	15.580771	-93.838272	19.991448	-7.149414	2.853941	-64.394395	-5.563191	0	0	26.838506	12.276171	-8.799747	-13.74294	7.858514	0	0	34.819676	-7.096162	5.857199	0	0	0	0	0	0	-10.959175	209.386307	-11.655451	0.452763	-0.001607	-0.341352	0	0	0	-0.006496	0.704896	0.015078
0.99	0.432865	0.65505	-0.318986	8.421832	15.614618	-93.897018	22.558264	-6.451596	3.571307	-66.803936	-3.742256	0	0	25.677838	11.981279	-9.075899	-13.145694	8.456914	0	0	34.616857	-6.828574	5.378476	0	0	0	0	0	0	-11.013615	201.588806	-8.584925	0.453154	-0.001301	-0.341054	0	0	0	-0.0059	0.640224	0.013695
1	0.433226	0.656431	-0.31046	8.015342	15.60485	-93.876358	24.961965	-5.677445	4.07995	-68.752691	-1.835526	0	0	24.453566	11.633019	-9.298075	-12.520748	9.013073	0	0	34.357262	-6.520392	4.85184	0	0	0	0	0	0	-10.821148	194.210434	-5.836298	0.453531	-0.001033	-0.340494	0	0	0	-0.0053	0.575142	0.012302
1.01	0.433613	0.657774	-0.301928	7.535621	15.558864	-93.779404	27.199422	-4.855237	4.380805	-70.224392	0.042018	0	0	23.178592	11.238018	-9.48864	-11.875565	9.529675	0	0	34.052803	-6.177305	4.289588	0	0	0	0	0	0	-10.425107	187.612259	-3.417476	0.453898	-0.000805	-0.339588	0	0	0	-0.004685	0.508344	0.010874
1.02	0.43403	0.65905	-0.293384	6.999901	15.486807	-93.614311	29.277684	-4.018377	4.488946	-71.216033	1.807982	0	0	21.870717	10.807936	-9.66709	-11.21833	10.010626	0	0	33.717652	-5.80958	3.706276	0	0	0	0	0	0	-9.902561	182.067001	-1.318387	0.45427	-0.000615	-0.338255	0	0	0	-0.004033	0.437584	0.00936
1.03	0.434483	0.660228	-0.284827	6.428741	15.398986	-93.389725	31.207397	-3.202319	4.42566	-71.733092	3.410654	0	0	20.548781	10.358382	-9.840537	-10.558052	10.460334	0	0	33.365365	-5.430329	3.11407	0	0	0	0	0	0	-9.339292	177.720062	0.487696	0.454674	-0.000461	-0.336446	0	0	0	-0.003329	0.361216	0.007727
1.04	0.434976	0.661279	-0.276257	5.840246	15.305321	-93.112976	32.998481	-2.4366	4.215829	-71.78384	4.822561	0	0	19.231231	9.903644	-10.001936	-9.905274	10.885217	0	0	33.00805	-5.051269	2.518845	0	0	0	0	0	0	-8.817044	174.599213	2.037192	0.455149	-0.000338	-0.334148	0	0	0	-0.002573	0.279207	0.005972
1.05	0.435511	0.662175	-0.267677	5.248284	15.214787	-92.79174	34.657736	-1.740231	3.888918	-71.375969	6.034931	0	0	17.934825	9.453967	-10.135742	-9.271505	11.294214	0	0	32.656162	-4.680742	1.923897	0	0	0	0	0	0	-8.397533	172.644714	3.370852	0.455718	-0.000244	-0.33137	0	0	0	-0.001787	0.193894	0.004147
1.06	0.436079	0.662896	-0.259084	4.664342	15.134159	-92.436546	36.187408	-1.122571	3.479453	-70.515467	7.0523	0	0	16.67242	9.016455	-10.2267	-8.66736	11.697568	0	0	32.318024	-4.32439	1.339015	0	0	0	0	0	0	-8.111991	171.729385	4.527495	0.456386	-0.000175	-0.328149	0	0	0	-0.000998	0.108243	0.002315
1.07	0.436665	0.663424	-0.250474	4.099082	15.067703	-92.060333	37.585004	-0.587016	3.023783	-69.206127	7.886259	0	0	15.45207	8.596847	-10.264765	-8.101327	12.105252	0	0	31.99986	-3.986489	0.782972	0	0	0	0	0	0	-7.966082	171.677399	5.549252	0.457151	-0.000126	-0.324543	0	0	0	-0.000228	0.024762	0.00053
1.08	0.437253	0.663748	-0.241836	3.562454	15.017262	-91.676003	38.843586	-0.134293	2.555559	-67.449846	8.551221	0	0	14.276502	8.201049	-10.243576	-7.5785	12.525368	0	0	31.705557	-3.671088	0.274176	0	0	0	0	0	0	-7.951505	172.297256	6.483721	0.458004	-0.00009	-0.320619	0	0	0	0.000514	-0.055727	-0.001192
1.09	0.437826	0.663861	-0.233154	3.06301	14.981885	-91.297424	39.951942	0.239579	2.106559	-65.247547	9.062056	0	0	13.142221	7.834374	-10.161974	-7.099181	12.963773	0	0	31.436093	-3.381385	-0.177617	0	0	0	0	0	0	-8.057752	173.409836	7.377208	0.45894	-0.000065	-0.316439	0	0	0	0.001228	-0.133266	-0.002851
1.1	0.438363	0.66376	-0.224414	2.607801	14.959511	-90.940987	40.897697	0.544559	1.707485	-62.601382	9.431999	0	0	12.042352	7.500448	-10.027899	-6.660185	13.424762	0	0	31.191032	-3.118991	-0.570147	0	0	0	0	0	0	-8.273849	174.867325	8.258902	0.459958	-0.000053	-0.312032	0	0	0	0.001914	-0.207679	-0.004442
1.11	0.438854	0.663442	-0.2156	2.203488	14.949498	-90.618233	41.671893	0.786728	1.377191	-59.519573	9.672212	0	0	10.971296	7.204182	-9.850477	-6.258179	13.91025	0	0	30.970485	-2.886476	-0.909429	0	0	0	0	0	0	-8.592591	176.554825	9.130702	0.46107	-0.000054	-0.30741	0	0	0	0.002566	-0.278454	-0.005956
1.12	0.439308	0.662903	-0.2067	1.857041	14.951648	-90.32785	42.269541	0.958344	1.111167	-56.021826	9.792538	0	0	9.924262	6.954922	-9.628198	-5.890514	14.417887	0	0	30.773916	-2.690072	-1.21203	0	0	0	0	0	0	-9.00817	178.419785	9.982081	0.462295	-0.000063	-0.302576	0	0	0	0.003171	-0.344052	-0.007359
